<?xml version="1.0" encoding="UTF-8"?>
<!DOCTYPE svg PUBLIC "-//W3C//DTD SVG 1.1//EN" "http://www.w3.org/Graphics/SVG/1.1/DTD/svg11.dtd">
<!-- Creator: CorelDRAW X8 -->
<svg xmlns="http://www.w3.org/2000/svg" xml:space="preserve" width="1.69333cm" height="1.69333cm" version="1.1" style="shape-rendering:geometricPrecision; text-rendering:geometricPrecision; image-rendering:optimizeQuality; fill-rule:evenodd; clip-rule:evenodd"
viewBox="0 0 1699 1699"
 xmlns:xlink="http://www.w3.org/1999/xlink">
 <defs>
  <style type="text/css">
   <![CDATA[
    .fil0 {fill:#2B2A29;fill-rule:nonzero}
    .fil2 {fill:#00B1AA;fill-rule:nonzero}
    .fil3 {fill:#D3394C;fill-rule:nonzero}
    .fil1 {fill:white;fill-rule:nonzero}
   ]]>
  </style>
 </defs>
 <g id="Warstwa_x0020_1">
  <metadata id="CorelCorpID_0Corel-Layer"/>
  <path class="fil0" d="M84 0l1531 0c23,0 44,9 59,25 15,15 25,36 25,59l0 1531c0,23 -10,44 -25,59 -15,15 -36,25 -59,25l-1531 0c-23,0 -44,-10 -59,-25 -16,-15 -25,-36 -25,-59l0 -1531c0,-23 9,-44 25,-59 15,-16 36,-25 59,-25zm1531 35l-1531 0c-13,0 -25,6 -34,15 -9,9 -15,21 -15,34l0 1531c0,13 6,25 15,34 9,9 21,15 34,15l1531 0c13,0 25,-6 34,-15 9,-9 15,-21 15,-34l0 -1531c0,-13 -6,-25 -15,-34 -9,-9 -21,-15 -34,-15z"/>
  <path class="fil1" d="M1615 35l-1531 0c-13,0 -25,6 -34,15 -9,9 -15,21 -15,34l0 1531c0,13 6,25 15,34 9,9 21,15 34,15l1531 0c27,0 49,-22 49,-49l0 -1531c0,-13 -6,-25 -15,-34 -9,-9 -21,-15 -34,-15z"/>
  <path class="fil2" d="M180 288c154,0 293,63 394,164 101,100 163,240 163,394 0,154 -62,293 -163,394 -101,101 -240,163 -394,163l0 -53c139,0 265,-56 356,-148 92,-91 148,-217 148,-356 0,-139 -56,-266 -148,-357 -91,-91 -217,-148 -356,-148l0 -53z"/>
  <path class="fil3" d="M1414 341l-199 0c-66,0 -125,27 -169,70 -43,44 -70,103 -70,169 0,66 27,126 70,169 44,44 103,70 169,70l0 0c81,0 154,33 207,86l0 0c53,53 85,126 85,206 0,81 -32,154 -85,207l0 0c-53,53 -126,85 -207,85l-265 0 0 -53 265 0c66,0 126,-27 169,-70l0 0c43,-43 70,-103 70,-169 0,-66 -27,-126 -70,-169l0 0c-43,-43 -103,-70 -169,-70l0 0c-80,0 -153,-32 -206,-85 -53,-53 -86,-126 -86,-207 0,-80 33,-153 86,-206l0 0c53,-53 126,-86 206,-86l199 0 0 53z"/>
 </g>
</svg>
