<?xml version="1.0" encoding="UTF-8"?>
<!DOCTYPE svg PUBLIC "-//W3C//DTD SVG 1.1//EN" "http://www.w3.org/Graphics/SVG/1.1/DTD/svg11.dtd">
<!-- Creator: CorelDRAW X8 -->
<svg xmlns="http://www.w3.org/2000/svg" xml:space="preserve" width="12.7966cm" height="2.90214cm" version="1.1" style="shape-rendering:geometricPrecision; text-rendering:geometricPrecision; image-rendering:optimizeQuality; fill-rule:evenodd; clip-rule:evenodd"
viewBox="0 0 12797 2902"
 xmlns:xlink="http://www.w3.org/1999/xlink">
 <defs>
  <style type="text/css">
   <![CDATA[
    .fil3 {fill:#9D9E9E;fill-rule:nonzero}
    .fil2 {fill:#434242;fill-rule:nonzero}
    .fil0 {fill:#00B1AA;fill-rule:nonzero}
    .fil1 {fill:#D3394C;fill-rule:nonzero}
   ]]>
  </style>
 </defs>
 <g id="Warstwa_x0020_1">
  <metadata id="CorelCorpID_0Corel-Layer"/>
  <path class="fil0" d="M0 0c401,0 763,162 1026,425 263,263 425,625 425,1026 0,401 -162,764 -425,1026 -262,263 -625,425 -1026,425l0 -138c363,0 691,-147 928,-385 238,-237 385,-565 385,-928 0,-362 -147,-691 -385,-928 -237,-238 -565,-385 -928,-385l0 -138z"/>
  <path class="fil1" d="M5721 138l-518 0c-172,0 -327,70 -440,182 -112,113 -182,268 -182,440 0,172 70,327 182,440 113,112 268,182 440,182 210,0 400,85 537,223l0 0c138,138 223,328 223,537 0,210 -85,400 -223,537l0 0c-137,138 -327,223 -537,223l-691 0 0 -138 691 0c172,0 327,-70 440,-182l0 0c112,-113 182,-268 182,-440 0,-172 -70,-327 -182,-440l0 0c-113,-112 -268,-182 -440,-182 -210,0 -400,-85 -537,-222 -138,-138 -223,-328 -223,-538 0,-210 85,-400 223,-537 137,-138 327,-223 537,-223l518 0 0 138z"/>
  <path class="fil2" d="M4167 1520c-172,0 -328,70 -440,182 -113,113 -182,268 -182,440 0,172 69,327 182,440 112,112 268,182 440,182l0 138c-210,0 -400,-85 -538,-222l0 -1c-137,-137 -222,-327 -222,-537 0,-210 85,-400 222,-537 138,-138 328,-223 538,-223l0 138z"/>
  <path class="fil2" d="M7953 2902l0 -760c0,-210 85,-400 223,-537 138,-138 328,-223 537,-223 210,0 400,85 538,223 137,137 222,327 222,537l0 760 -138 0 0 -760c0,-172 -69,-327 -182,-440 -113,-112 -268,-182 -440,-182 -172,0 -327,70 -440,182 -112,113 -182,268 -182,440l0 760 -138 0z"/>
  <path class="fil2" d="M9978 2681c47,27 97,48 149,62 52,14 107,21 161,21 172,0 328,-70 440,-182 113,-113 182,-268 182,-440 0,-172 -69,-327 -182,-440 -106,-106 -251,-174 -412,-181l-497 497 -98 -98 539 -538 28 0c210,0 400,85 538,223 137,137 223,327 223,537 0,210 -86,400 -223,537 -138,138 -328,223 -538,223 -66,0 -132,-9 -196,-26 -64,-17 -126,-42 -184,-76l70 -119z"/>
  <path class="fil2" d="M12382 2902l-362 0c-203,0 -390,-86 -525,-225 -134,-137 -219,-326 -219,-535 0,-210 86,-400 223,-537 138,-138 328,-223 537,-223 210,0 400,85 538,223 137,137 223,327 223,537l0 69 -1379 0c16,144 81,273 175,370 111,113 263,183 427,183l362 0 0 138zm-785 -1200c-97,98 -163,227 -179,371l1237 0c-16,-144 -82,-273 -179,-371 -112,-112 -268,-182 -440,-182 -171,0 -327,70 -439,182z"/>
  <path class="fil2" d="M7304 2902l-362 0c-203,0 -390,-86 -526,-225 -134,-137 -218,-326 -218,-535 0,-210 85,-400 223,-537 137,-138 327,-223 537,-223 210,0 400,85 538,223 137,137 222,327 222,537l0 69 -1378 0c16,144 80,273 175,370 110,113 262,183 427,183l362 0 0 138zm-786 -1200c-97,98 -162,227 -178,371l1236 0c-16,-144 -81,-273 -178,-371 -113,-112 -268,-182 -440,-182 -172,0 -327,70 -440,182z"/>
  <path class="fil2" d="M3192 2142c0,210 -85,400 -222,537 -138,138 -328,223 -538,223 -210,0 -400,-85 -537,-222l0 -1c-138,-137 -223,-327 -223,-537 0,-210 85,-400 223,-537 137,-138 327,-223 537,-223 210,0 400,85 538,223 137,137 222,327 222,537zm-320 440c112,-113 182,-268 182,-440 0,-172 -70,-327 -182,-440 -113,-112 -268,-182 -440,-182 -172,0 -327,70 -440,182 -112,113 -182,268 -182,440 0,172 70,327 182,440 113,112 268,182 440,182 172,0 327,-70 440,-182z"/>
  <path class="fil3" d="M10986 690c0,95 -38,182 -101,245 -63,62 -149,101 -245,101 -95,0 -182,-39 -245,-101l0 0c-63,-63 -101,-150 -101,-245 0,-96 38,-183 101,-245 63,-63 149,-102 245,-102 96,0 182,39 245,102 63,62 101,149 101,245zm-146 200c52,-51 83,-122 83,-200 0,-79 -31,-149 -83,-201 -51,-51 -122,-83 -200,-83 -78,0 -149,32 -200,83 -52,52 -83,122 -83,201 0,78 31,149 83,200 51,51 122,83 200,83 78,0 149,-32 200,-83z"/>
  <path class="fil3" d="M8925 935c21,13 44,22 68,28 24,7 49,10 73,10 79,0 150,-32 201,-83 51,-51 83,-122 83,-200 0,-79 -32,-149 -83,-201 -49,-48 -115,-79 -188,-82l-226 226 -45 -44 245 -246 13 0c96,0 183,39 245,102 63,62 102,149 102,245 0,95 -39,182 -102,245 -62,62 -149,101 -245,101 -30,0 -60,-4 -89,-12 -29,-8 -57,-19 -84,-34l32 -55z"/>
  <path class="fil3" d="M10011 1036l-165 0c-93,0 -178,-39 -240,-103 -61,-62 -99,-148 -99,-243 0,-96 39,-183 101,-245 63,-63 150,-102 245,-102 96,0 183,39 245,102 63,62 102,149 102,245l0 31 -628 0c7,66 36,124 79,169 51,51 120,83 195,83l165 0 0 63zm-358 -547c-44,45 -74,104 -81,169l563 0c-7,-65 -37,-124 -81,-169 -52,-51 -122,-83 -201,-83 -78,0 -149,32 -200,83z"/>
  <polygon class="fil3" points="10985,343 10985,1036 10922,1036 10922,343 "/>
  <path class="fil3" d="M11522 343c-96,0 -183,39 -245,102 -63,62 -102,149 -102,245l63 0c0,-79 32,-149 83,-201 51,-51 122,-83 201,-83l0 -63z"/>
  <polygon class="fil3" points="11175,343 11175,1036 11238,1036 11238,343 "/>
  <path class="fil3" d="M11915 406c-78,0 -149,32 -200,83 -52,52 -83,122 -83,201 0,78 31,149 83,200 51,51 122,83 200,83l0 63c-96,0 -182,-39 -245,-101l0 0c-63,-63 -101,-150 -101,-245 0,-96 38,-183 101,-245 63,-63 149,-102 245,-102l0 63z"/>
  <path class="fil3" d="M12104 1005l0 -315c0,-96 39,-183 101,-245 63,-63 150,-102 245,-102 96,0 182,39 245,102 63,63 102,149 102,245l0 346 -63 0 0 -346c0,-79 -32,-149 -83,-201 -52,-51 -123,-83 -201,-83 -78,0 -149,32 -200,83 -51,52 -83,122 -83,201l0 315 -63 0z"/>
  <polygon class="fil3" points="12167,0 12167,1036 12104,1036 12104,0 "/>
 </g>
</svg>
