<?xml version="1.0" encoding="UTF-8"?>
<!DOCTYPE svg PUBLIC "-//W3C//DTD SVG 1.1//EN" "http://www.w3.org/Graphics/SVG/1.1/DTD/svg11.dtd">
<!-- Creator: CorelDRAW X8 -->
<svg xmlns="http://www.w3.org/2000/svg" xml:space="preserve" width="27.7427cm" height="0.84699cm" version="1.1" style="shape-rendering:geometricPrecision; text-rendering:geometricPrecision; image-rendering:optimizeQuality; fill-rule:evenodd; clip-rule:evenodd"
viewBox="0 0 27743 847"
 xmlns:xlink="http://www.w3.org/1999/xlink">
 <defs>
  <style type="text/css">
   <![CDATA[
    .fil3 {fill:#9D9E9E;fill-rule:nonzero}
    .fil2 {fill:#434242;fill-rule:nonzero}
    .fil0 {fill:#00B1AA;fill-rule:nonzero}
    .fil1 {fill:#D3394C;fill-rule:nonzero}
   ]]>
  </style>
 </defs>
 <g id="Warstwa_x0020_1">
  <metadata id="CorelCorpID_0Corel-Layer"/>
  <path class="fil0" d="M24008 0c117,0 223,48 299,124 77,77 124,183 124,300 0,117 -47,222 -124,299 -76,77 -182,124 -299,124l-24008 0 0 -40 24008 0c106,0 201,-43 271,-113 69,-69 112,-165 112,-270 0,-106 -43,-202 -112,-271 -70,-69 -165,-112 -271,-112l0 -41z"/>
  <path class="fil1" d="M25678 40l-152 0c-50,0 -95,21 -128,53 -33,33 -53,79 -53,129 0,50 20,95 53,128 33,33 78,53 128,53 62,0 117,25 157,65l0 0c40,41 65,96 65,157 0,61 -25,117 -65,157l0 0c-40,40 -95,65 -157,65l-201 0 0 -40 201 0c51,0 96,-21 129,-53l0 -1c33,-32 53,-78 53,-128 0,-50 -20,-95 -53,-128l0 0c-33,-33 -78,-53 -129,-53 -61,0 -116,-25 -156,-65 -41,-40 -65,-96 -65,-157 0,-61 24,-117 65,-157 40,-40 95,-65 156,-65l152 0 0 40z"/>
  <path class="fil2" d="M25224 444c-50,0 -95,20 -128,53 -33,33 -53,78 -53,128 0,50 20,96 53,129 32,32 78,53 128,53l0 40c-61,0 -117,-25 -157,-65l0 0c-40,-40 -65,-96 -65,-157 0,-61 25,-117 65,-157 40,-40 96,-65 157,-65l0 41z"/>
  <path class="fil2" d="M26329 847l0 -222c0,-61 25,-117 65,-157 40,-40 96,-65 157,-65 61,0 117,25 157,65 40,41 65,96 65,157l0 222 -41 0 0 -222c0,-50 -20,-95 -53,-128 -33,-33 -78,-53 -128,-53 -50,0 -96,20 -128,53 -33,33 -54,78 -54,128l0 222 -40 0z"/>
  <path class="fil2" d="M26920 782c14,8 28,14 44,18 15,5 31,7 47,7 50,0 95,-21 128,-53 33,-33 53,-79 53,-129 0,-50 -20,-95 -53,-128 -31,-31 -73,-51 -120,-53l-145 145 -29 -29 157 -157 9 0c61,0 116,25 157,65 40,40 65,96 65,157 0,61 -25,117 -65,157 -41,40 -96,65 -157,65 -20,0 -39,-3 -58,-8 -18,-5 -36,-12 -53,-22l20 -35z"/>
  <path class="fil2" d="M27622 847l-106 0c-59,0 -114,-25 -153,-66 -39,-40 -64,-95 -64,-156 0,-61 25,-117 65,-157 40,-40 96,-65 157,-65 61,0 117,25 157,65 40,40 65,96 65,157l0 20 -403 0c5,42 24,80 52,108 32,33 76,54 124,54l106 0 0 40zm-230 -350c-28,28 -47,66 -52,108l361 0c-4,-42 -23,-80 -52,-108 -33,-33 -78,-53 -128,-53 -50,0 -96,20 -129,53z"/>
  <path class="fil2" d="M26140 847l-106 0c-59,0 -114,-25 -153,-66 -40,-40 -64,-95 -64,-156 0,-61 25,-117 65,-157 40,-40 95,-65 157,-65 61,0 116,25 157,65 40,40 65,96 65,157l0 20 -403 0c5,42 24,80 51,108 33,33 77,54 125,54l106 0 0 40zm-230 -350c-28,28 -47,66 -52,108l361 0c-5,-42 -24,-80 -52,-108 -33,-33 -78,-53 -128,-53 -50,0 -96,20 -129,53z"/>
  <path class="fil2" d="M24940 625c0,61 -25,117 -65,157 -40,40 -96,65 -157,65 -61,0 -117,-25 -157,-65l0 0c-40,-40 -65,-96 -65,-157 0,-61 25,-117 65,-157 40,-40 96,-65 157,-65 61,0 117,25 157,65 40,40 65,96 65,157zm-94 129c33,-33 53,-79 53,-129 0,-50 -20,-95 -53,-128 -33,-33 -78,-53 -128,-53 -50,0 -96,20 -129,53 -32,33 -53,78 -53,128 0,50 21,96 53,129 33,32 79,53 129,53 50,0 95,-21 128,-53z"/>
  <path class="fil3" d="M27214 201c0,28 -11,53 -29,72 -19,18 -44,29 -72,29 -28,0 -53,-11 -71,-29l0 0c-18,-19 -30,-44 -30,-72 0,-28 12,-53 30,-71 18,-18 43,-30 71,-30 28,0 53,12 72,30 18,18 29,43 29,71zm-42 59c15,-15 24,-36 24,-59 0,-23 -9,-43 -24,-58 -15,-15 -36,-24 -59,-24 -23,0 -43,9 -58,24 -15,15 -24,35 -24,58 0,23 9,44 24,59 15,15 35,24 58,24 23,0 44,-9 59,-24z"/>
  <path class="fil3" d="M26613 273c6,4 13,6 20,8 7,2 14,3 21,3 23,0 44,-9 59,-24 14,-15 24,-36 24,-59 0,-23 -10,-43 -24,-58 -15,-14 -34,-23 -55,-24l-66 66 -13 -13 71 -72 4 0c28,0 53,12 72,30 18,18 29,43 29,71 0,28 -11,53 -29,72 -19,18 -44,29 -72,29 -9,0 -18,-1 -26,-3 -9,-2 -17,-6 -25,-10l10 -16z"/>
  <path class="fil3" d="M26930 302l-49 0c-26,0 -51,-11 -69,-30 -18,-18 -29,-43 -29,-71 0,-28 11,-53 29,-71 19,-18 44,-30 72,-30 28,0 53,12 71,30 18,18 30,43 30,71l0 9 -184 0c3,20 11,37 24,50 14,15 35,24 56,24l49 0 0 18zm-105 -159c-13,13 -21,30 -24,49l165 0c-2,-19 -11,-36 -24,-49 -15,-15 -36,-24 -58,-24 -23,0 -44,9 -59,24z"/>
  <polygon class="fil3" points="27214,100 27214,302 27196,302 27196,100 "/>
  <path class="fil3" d="M27371 100c-28,0 -54,12 -72,30 -18,18 -30,43 -30,71l19 0c0,-23 9,-43 24,-58 15,-15 36,-24 59,-24l0 -19z"/>
  <polygon class="fil3" points="27269,100 27269,302 27288,302 27288,100 "/>
  <path class="fil3" d="M27485 119c-22,0 -43,9 -58,24 -15,15 -24,35 -24,58 0,23 9,44 24,59 15,15 36,24 58,24l0 18c-28,0 -53,-11 -71,-29l0 0c-18,-19 -30,-44 -30,-72 0,-28 12,-53 30,-71 18,-18 43,-30 71,-30l0 19z"/>
  <path class="fil3" d="M27540 293l0 -92c0,-28 12,-53 30,-71 18,-18 44,-30 72,-30 27,0 53,12 71,30 18,18 30,43 30,71l0 101 -19 0 0 -101c0,-23 -9,-43 -24,-58 -15,-15 -36,-24 -58,-24 -23,0 -44,9 -59,24 -15,15 -24,35 -24,58l0 92 -19 0z"/>
  <polygon class="fil3" points="27559,0 27559,302 27540,302 27540,0 "/>
 </g>
</svg>
